# xmcd
#
# Track frame offsets:
#	150
#	18357
#	22495
#	39971
#	53848
#	66992
#	80978
#	98134
#	114967
#	129653
#	147801
#	178536
#
# Disc length: 2864 seconds
#
# Revision: 0
# Processed by: cddbd v1.5.1PL2 Copyright (c) Steve Scherf et al.
# Submitted via: EasyCDDAExtractor 9.0.0.1
#
DISCID=a50b2e0c
DTITLE=Harold Hunter - Spell Of The Night
DYEAR=2004
DGENRE=
TTITLE0=Song Of The Day
TTITLE1=Believe Me (Part-1)
TTITLE2=Believe Me
TTITLE3=Secret
TTITLE4=Stending By The Door Way
TTITLE5=Chaos
TTITLE6=Fly
TTITLE7=Double-Touch
TTITLE8=My sweet Lord
TTITLE9=Kiss Without Love
TTITLE10=The Spell
TTITLE11=infos
EXTD=
EXTT0=
EXTT1=
EXTT2=
EXTT3=
EXTT4=
EXTT5=
EXTT6=
EXTT7=
EXTT8=
EXTT9=
EXTT10=
EXTT11=
PLAYORDER=
